<?xml version="1.0" standalone="no"?>
<!DOCTYPE svg PUBLIC "-//W3C//DTD SVG 20010904//EN"
 "http://www.w3.org/TR/2001/REC-SVG-20010904/DTD/svg10.dtd">
<svg version="1.0" xmlns="http://www.w3.org/2000/svg"
 width="225.000000pt" height="225.000000pt" viewBox="0 0 225.000000 225.000000"
 preserveAspectRatio="xMidYMid meet">

<g transform="translate(0.000000,225.000000) scale(0.100000,-0.100000)"
fill="#000000" stroke="none">
<path d="M0 1125 l0 -1125 1125 0 1125 0 0 1125 0 1125 -1125 0 -1125 0 0
-1125z m1390 121 l0 -45 34 6 c55 9 76 -21 76 -107 0 -63 -2 -70 -20 -70 -16
0 -19 8 -22 61 -3 65 -19 88 -52 76 -12 -5 -16 -20 -16 -72 0 -63 -1 -65 -25
-65 l-25 0 0 130 0 130 25 0 c23 0 25 -4 25 -44z m-910 14 c0 -18 -7 -20 -55
-20 -54 0 -55 0 -55 -30 0 -29 1 -30 50 -30 43 0 50 -3 50 -20 0 -17 -7 -20
-50 -20 l-50 0 0 -35 0 -35 55 0 c48 0 55 -2 55 -20 0 -18 -7 -20 -80 -20
l-80 0 0 125 0 125 80 0 c73 0 80 -2 80 -20z m640 -30 c0 -23 4 -30 20 -30 11
0 20 -7 20 -15 0 -8 -9 -15 -20 -15 -17 0 -20 -7 -20 -49 0 -40 3 -50 20 -54
31 -8 25 -37 -8 -37 -41 0 -52 17 -52 82 0 45 -3 58 -15 58 -8 0 -15 7 -15 15
0 9 7 18 15 21 8 4 15 17 15 30 0 17 6 24 20 24 16 0 20 -7 20 -30z m830 9 c0
-8 5 -8 15 1 12 10 15 9 15 -7 0 -24 -50 -28 -51 -3 0 11 -3 9 -8 -4 -7 -19
-8 -19 -13 2 -5 18 -2 22 18 22 13 0 24 -5 24 -11z m-1135 -54 c16 -15 25 -36
25 -55 l0 -30 -60 0 c-61 0 -72 -8 -45 -30 16 -13 65 -6 65 10 0 13 27 13 35
-1 10 -15 -23 -47 -55 -54 -38 -8 -84 17 -100 54 -37 90 69 173 135 106z m195
5 c16 -16 20 -33 20 -90 0 -63 -2 -70 -20 -70 -17 0 -20 7 -20 53 0 60 -17 91
-46 85 -16 -3 -19 -13 -22 -71 -3 -64 -4 -67 -27 -67 -25 0 -25 1 -25 86 l0
87 30 -6 c16 -4 32 -2 35 3 10 17 54 11 75 -10z m278 4 c12 -8 22 -19 22 -23
0 -17 -32 -21 -46 -6 -16 16 -44 10 -44 -10 0 -7 15 -16 34 -19 42 -8 58 -27
54 -63 -6 -53 -93 -67 -122 -20 -15 24 14 44 30 22 15 -19 54 -19 54 0 0 8
-12 18 -27 21 -38 9 -63 33 -63 60 0 26 34 54 65 54 11 0 31 -7 43 -16z m385
-4 c34 -27 44 -78 23 -117 -43 -84 -166 -53 -166 41 1 43 12 65 45 84 31 17
70 14 98 -8z m212 -5 c27 -26 34 -89 15 -125 -14 -25 -65 -41 -95 -30 -24 9
-25 8 -25 -30 0 -33 -3 -40 -20 -40 -19 0 -20 7 -20 121 l0 121 24 -4 c14 -3
31 -1 38 3 24 16 59 9 83 -16z m-1329 -32 c9 -27 20 -52 24 -56 4 -4 15 17 25
48 16 45 23 55 42 55 l22 0 -26 -67 c-14 -38 -28 -76 -31 -86 -3 -12 -12 -17
-29 -15 -21 3 -30 16 -58 86 l-33 82 23 0 c19 0 27 -9 41 -47z"/>
<path d="M727 1163 c-16 -15 -5 -23 33 -23 31 0 38 3 34 15 -6 15 -55 21 -67
8z"/>
<path d="M1580 1151 c-15 -30 -12 -56 10 -76 17 -15 24 -16 45 -7 19 9 25 19
25 45 0 18 -5 38 -12 45 -18 18 -56 14 -68 -7z"/>
<path d="M1790 1151 c-21 -40 -1 -91 35 -91 37 0 61 70 33 98 -18 18 -56 14
-68 -7z"/>
</g>
</svg>
