<?xml version="1.0" encoding="UTF-8"?><svg id="a" xmlns="http://www.w3.org/2000/svg" viewBox="0 0 2000 2000"><rect width="2000" height="2000" rx="400" ry="400"/><path d="m400,950.45V358.64h365.63v93.51h-265.33v157.04h240.16v91.11h-240.16v157.04h265.33v93.51l-365.63-.4h0Zm1103.3,253.75c-5.99-36.76-36.76-91.11-115.88-91.11-59.94,0-101.9,39.96-101.9,85.11,0,37.56,23.18,65.93,69.13,75.92l85.11,17.58c104.3,20.78,160.24,86.71,160.24,170.23,0,91.91-74.33,179.42-209.39,179.42-150.25,0-219.38-96.7-228.57-181.82l93.51-26.77c5.99,61.94,49.95,118.68,135.06,118.68,71.13,0,107.49-35.96,107.49-81.92,0-38.36-28.37-69.13-79.12-80.32l-83.52-17.58c-90.31-18.38-150.25-77.52-150.25-166.23,0-99.5,91.11-181.02,201-181.02,139.46,0,193.81,85.11,206.99,151.05l-89.91,28.77h0Zm-942.66,421.98h-123.48L1436.56,358.64h123.48l-999.4,1267.53Z" fill="#fff" stroke="#fff" stroke-miterlimit="10" stroke-width="16"/></svg>